# xmcd CD database file
#
# Track frame offsets:
#	150
#	16010
#	44736
#	61293
#	81456
#	100523
#	120268
#	141098
#	163239
#	180686
#	200186
#
# Disc length: 3053 seconds
#
# Revision: 0
# Processed by: cddbd v1.5PL3 Copyright (c) Steve Scherf et al.
# Submitted via: CDex 1.51
#
DISCID=950beb0b
DTITLE=Various Artist - MyUtopia Sampler
DYEAR=2003
DGENRE=New Age
TTITLE0=ILS - No Soul
TTITLE1=ILS - Music (Evilnine Punk Rocks Remix)
TTITLE2=Yellow Note - Love Resurrection
TTITLE3=Yellow Note - Naked Drunk and Horny (Acen Remix)
TTITLE4=Tipper - Over The Coals
TTITLE5=Tipper - No Dice
TTITLE6=Josh One - Grey Skies
TTITLE7=Josh One - Midnight Sumba (Featuring Kandace Lindsey)
TTITLE8=Pop - Honestly
TTITLE9=Pop - Enough Of Me
TTITLE10=Alan Parsons - Antartica (Featuring Shpongle)
EXTD=YEAR: 2003
EXTT0=
EXTT1=
EXTT2=
EXTT3=
EXTT4=
EXTT5=
EXTT6=
EXTT7=
EXTT8=
EXTT9=
EXTT10=
PLAYORDER=
